HIERARCHY
ROOT hip
{
  OFFSET 0 0 0
  CHANNELS 6 Xposition Yposition Zposition Zrotation Yrotation Xrotation
  JOINT abdomen
  {
    OFFSET 0 20.6881 -0.73152
    CHANNELS 3 Zrotation Xrotation Yrotation
    JOINT chest
    {
      OFFSET 0 11.7043 -0.48768
      CHANNELS 3 Zrotation Xrotation Yrotation
      JOINT neck
      {
        OFFSET 0 22.1894 -2.19456
        CHANNELS 3 Zrotation Xrotation Yrotation
        JOINT head
        {
          OFFSET -0.24384 7.07133 1.2192
          CHANNELS 3 Zrotation Xrotation Yrotation
          JOINT leftEye
          {
            OFFSET 4.14528 8.04674 8.04672
            CHANNELS 3 Zrotation Xrotation Yrotation
            End Site
            {
              OFFSET 1 0 0
            }
          }
          JOINT rightEye
          {
            OFFSET -3.6576 8.04674 8.04672
            CHANNELS 3 Zrotation Xrotation Yrotation
            End Site
            {
              OFFSET 1 0 0
            }
          }
        }
      }
      JOINT rCollar
      {
        OFFSET -2.68224 19.2634 -4.8768
        CHANNELS 3 Zrotation Xrotation Yrotation
        JOINT rShldr
        {
          OFFSET -8.77824 -1.95073 1.46304
          CHANNELS 3 Zrotation Xrotation Yrotation
          JOINT rForeArm
          {
            OFFSET -28.1742 -1.7115 0.48768
            CHANNELS 3 Zrotation Xrotation Yrotation
            JOINT rHand
            {
              OFFSET -22.5879 0.773209 7.07136
              CHANNELS 3 Zrotation Xrotation Yrotation
              JOINT rThumb1
              {
                OFFSET -1.2192 -0.487915 3.41376
                CHANNELS 3 Zrotation Xrotation Yrotation
                JOINT rThumb2
                {
                  OFFSET -3.37035 -0.52449 3.41376
                  CHANNELS 3 Zrotation Xrotation Yrotation
                  End Site
                  {
                    OFFSET -1.78271 -1.18214 1.43049
                  }
                }
              }
              JOINT rIndex1
              {
                OFFSET -7.75947 0.938293 5.60832
                CHANNELS 3 Zrotation Xrotation Yrotation
                JOINT rIndex2
                {
                  OFFSET -2.54057 -0.884171 1.56538
                  CHANNELS 3 Zrotation Xrotation Yrotation
                  End Site
                  {
                    OFFSET -1.62519 -0.234802 1.16502
                  }
                }
              }
              JOINT rMid1
              {
                OFFSET -8.24714 1.18213 3.41376
                CHANNELS 3 Zrotation Xrotation Yrotation
                JOINT rMid2
                {
                  OFFSET -3.10165 -0.590103 1.0647
                  CHANNELS 3 Zrotation Xrotation Yrotation
                  End Site
                  {
                    OFFSET -2.48547 -0.328903 0.83742
                  }
                }
              }
              JOINT rRing1
              {
                OFFSET -8.82822 0.546677 1.51678
                CHANNELS 3 Zrotation Xrotation Yrotation
                JOINT rRing2
                {
                  OFFSET -2.60934 -0.819778 -0.0198488
                  CHANNELS 3 Zrotation Xrotation Yrotation
                  End Site
                  {
                    OFFSET -2.33842 -0.294052 0.168128
                  }
                }
              }
              JOINT rPinky1
              {
                OFFSET -8.27202 -0.0477905 -0.4584
                CHANNELS 3 Zrotation Xrotation Yrotation
                JOINT rPinky2
                {
                  OFFSET -1.82734 -0.647385 -0.700984
                  CHANNELS 3 Zrotation Xrotation Yrotation
                  End Site
                  {
                    OFFSET -1.69225 -0.51767 -0.607171
                  }
                }
              }
            }
          }
        }
      }
      JOINT lCollar
      {
        OFFSET 2.68224 19.2634 -4.8768
        CHANNELS 3 Zrotation Xrotation Yrotation
        JOINT lShldr
        {
          OFFSET 8.77824 -1.95073 1.46304
          CHANNELS 3 Zrotation Xrotation Yrotation
          JOINT lForeArm
          {
            OFFSET 28.1742 -1.7115 0.48768
            CHANNELS 3 Zrotation Xrotation Yrotation
            JOINT lHand
            {
              OFFSET 22.5879 0.773209 7.07136
              CHANNELS 3 Zrotation Xrotation Yrotation
              JOINT lThumb1
              {
                OFFSET 1.2192 -0.487915 3.41376
                CHANNELS 3 Zrotation Xrotation Yrotation
                JOINT lThumb2
                {
                  OFFSET 3.37035 -0.52449 3.41376
                  CHANNELS 3 Zrotation Xrotation Yrotation
                  End Site
                  {
                    OFFSET 1.78271 -1.18214 1.43049
                  }
                }
              }
              JOINT lIndex1
              {
                OFFSET 7.75947 0.938293 5.60832
                CHANNELS 3 Zrotation Xrotation Yrotation
                JOINT lIndex2
                {
                  OFFSET 2.54057 -0.884171 1.56538
                  CHANNELS 3 Zrotation Xrotation Yrotation
                  End Site
                  {
                    OFFSET 1.62519 -0.234802 1.16502
                  }
                }
              }
              JOINT lMid1
              {
                OFFSET 8.24714 1.18213 3.41376
                CHANNELS 3 Zrotation Xrotation Yrotation
                JOINT lMid2
                {
                  OFFSET 3.10165 -0.590103 1.0647
                  CHANNELS 3 Zrotation Xrotation Yrotation
                  End Site
                  {
                    OFFSET 2.48547 -0.328903 0.83742
                  }
                }
              }
              JOINT lRing1
              {
                OFFSET 8.82822 0.546677 1.51678
                CHANNELS 3 Zrotation Xrotation Yrotation
                JOINT lRing2
                {
                  OFFSET 2.60934 -0.819778 -0.0198488
                  CHANNELS 3 Zrotation Xrotation Yrotation
                  End Site
                  {
                    OFFSET 2.33842 -0.294052 0.168128
                  }
                }
              }
              JOINT lPinky1
              {
                OFFSET 8.27202 -0.0477905 -0.4584
                CHANNELS 3 Zrotation Xrotation Yrotation
                JOINT lPinky2
                {
                  OFFSET 1.82734 -0.647385 -0.700984
                  CHANNELS 3 Zrotation Xrotation Yrotation
                  End Site
                  {
                    OFFSET 1.69225 -0.51767 -0.607171
                  }
                }
              }
            }
          }
        }
      }
    }
  }
  JOINT rButtock
  {
    OFFSET -8.77824 4.35084 1.2192
    CHANNELS 3 Zrotation Xrotation Yrotation
    JOINT rThigh
    {
      OFFSET 0 -1.70687 -2.19456
      CHANNELS 3 Zrotation Xrotation Yrotation
      JOINT rShin
      {
        OFFSET 0 -36.8199 0.73152
        CHANNELS 3 Zrotation Xrotation Yrotation
        JOINT rFoot
        {
          OFFSET 0.73152 -45.1104 -5.12064
          CHANNELS 3 Zrotation Xrotation Yrotation
          End Site
          {
            OFFSET -1.1221 -3.69964 12.103
          }
        }
      }
    }
  }
  JOINT lButtock
  {
    OFFSET 8.77824 4.35084 1.2192
    CHANNELS 3 Zrotation Xrotation Yrotation
    JOINT lThigh
    {
      OFFSET 0 -1.70687 -2.19456
      CHANNELS 3 Zrotation Xrotation Yrotation
      JOINT lShin
      {
        OFFSET 0 -36.8199 0.73152
        CHANNELS 3 Zrotation Xrotation Yrotation
        JOINT lFoot
        {
          OFFSET -0.73152 -45.1104 -5.12064
          CHANNELS 3 Zrotation Xrotation Yrotation
          End Site
          {
            OFFSET 1.1221 -3.69964 12.103
          }
        }
      }
    }
  }
}
MOTION
Frames:	4
Frame Time:	0.03333
-0.019600000232458115 61.60639953613281 -0.039000000804662704 -160.68600296974182 -66.64380133152008 162.0400035381317 0.7821899838745594 11.160899698734283 13.73280018568039 0.15601500403136015 -13.442599922418594 3.8588200137019157 -0.0627373979659751 13.349099457263947 9.854329973459244 5.043239928781986 -18.91839936375618 20.00819966197014 0.0 0.0 0.0 0.0 0.0 0.0 0.0 7.673861546209082e-12 0.0 51.76380157470703 82.17520236968994 11.698300391435623 -26.45250052213669 -45.34059762954712 94.16319608688354 -46.183100938797 -80.1174008846283 -53.775699734687805 -1.4094325706537347e-09 -1.652438186283689e-09 -3.069544618483633e-10 -2.384012987022288e-09 -2.9544366952904966e-09 -6.036771083017811e-10 -1.4094325706537347e-09 -1.652438186283689e-09 -3.069544618483633e-10 7.7309102565050125 5.474880114197731 0.41731400415301323 -1.4094325706537347e-09 -1.652438186283689e-09 -3.069544618483633e-10 2.905540131032467 0.9651830233633518 0.102901995414868 -1.4094325706537347e-09 -1.652438186283689e-09 -3.069544618483633e-10 10.27859978377819 0.7318009994924068 0.025912300043273717 -1.4094325706537347e-09 -1.652438186283689e-09 -3.069544618483633e-10 2.221670038998127 -0.733487019315362 -0.2089200052432716 0.0 7.673861546209082e-12 0.0 -67.33539819717407 6.548109725117683 -36.45759880542755 28.429500460624695 -35.19990026950836 -75.67600071430206 0.4699049983173609 19.11169946193695 -2.7913100458681583 3.453237695794087e-10 -1.220143985847244e-09 -2.496562956366688e-09 5.678657544194721e-10 -2.1026380636612885e-09 -4.317826096666977e-09 3.453237695794087e-10 -1.220143985847244e-09 -2.496562956366688e-09 -7.7309102565050125 5.474880114197731 -0.41731400415301323 3.453237695794087e-10 -1.220143985847244e-09 -2.496562956366688e-09 -2.905540131032467 0.9651830233633518 -0.102901995414868 3.453237695794087e-10 -1.220143985847244e-09 -2.496562956366688e-09 -10.27859978377819 0.7318009994924068 -0.025912300043273717 3.453237695794087e-10 -1.220143985847244e-09 -2.496562956366688e-09 -2.221670038998127 -0.733487019315362 0.2089200052432716 0.0 0.0 0.0 -14.047299921512604 -37.115300595760345 -25.72849988937378 -20.166900604963303 87.43729948997498 21.817499846220016 -22.625100910663605 -25.511900782585144 -33.19789946079254 0.0 0.0 0.0 80.09639918804169 -41.91760003566742 74.29330050945282 3.6827799305319786 76.22959792613983 -3.549889884889126 -0.06929700204636902 3.9765099808573723 -6.0018496960401535
-0.025500000454485416 61.57939910888672 -0.06700000166893005 -160.21300077438354 -66.61749958992004 161.6100025177002 0.931639987975359 11.224199831485748 13.69210034608841 0.10516899637877941 -13.499399721622467 3.8451598584651947 -0.030992600368335843 13.306799679994583 9.885369837284088 4.958830140531063 -18.76990020275116 20.036900639533997 0.0 0.0 0.0 0.0 0.0 0.0 0.0 7.673861546209082e-12 0.0 51.17359757423401 82.22360014915466 12.236300557851791 -26.453600227832794 -45.338199734687805 94.15819644927979 -45.9417986869812 -80.08689880371094 -53.53079795837402 3.581135388230905e-11 -1.1741008165699895e-09 -9.00399754755199e-10 1.2533973858808167e-10 -1.949160832737107e-09 -1.5143086784519255e-09 3.581135388230905e-11 -1.1741008165699895e-09 -9.00399754755199e-10 7.7309102565050125 5.474880114197731 0.41731400415301323 3.581135388230905e-11 -1.1741008165699895e-09 -9.00399754755199e-10 2.905540131032467 0.9651830233633518 0.102901995414868 3.581135388230905e-11 -1.1741008165699895e-09 -9.00399754755199e-10 10.27859978377819 0.7318009994924068 0.025912300043273717 3.581135388230905e-11 -1.1741008165699895e-09 -9.00399754755199e-10 2.221670038998127 -0.733487019315362 -0.2089200052432716 0.0 7.673861546209082e-12 0.0 -67.40660011768341 6.503990069031715 -36.45579904317856 28.430299758911133 -35.18610030412674 -75.64730107784271 0.4554030066356063 18.826300352811813 -2.746440041810274 4.834532774111722e-10 -1.0717826626205351e-09 -2.0975221559638157e-09 8.108713700494263e-10 -1.844284724938916e-09 -3.632294465205632e-09 4.834532774111722e-10 -1.0717826626205351e-09 -2.0975221559638157e-09 -7.7309102565050125 5.474880114197731 -0.41731400415301323 4.834532774111722e-10 -1.0717826626205351e-09 -2.0975221559638157e-09 -2.905540131032467 0.9651830233633518 -0.102901995414868 4.834532774111722e-10 -1.0717826626205351e-09 -2.0975221559638157e-09 -10.27859978377819 0.7318009994924068 -0.025912300043273717 4.834532774111722e-10 -1.0717826626205351e-09 -2.0975221559638157e-09 -2.221670038998127 -0.733487019315362 0.2089200052432716 0.0 0.0 0.0 -13.924899995326996 -37.09849923849106 -25.735900104045868 -20.261700600385666 87.45080173015594 21.916399598121643 -22.672600150108337 -25.448901057243347 -33.29650014638901 0.0 0.0 0.0 80.22909879684448 -42.02250123023987 74.2061984539032 3.708060085773468 76.30730152130127 -3.5762999206781387 -0.06754309928510338 3.9394398406147957 -5.921770334243774
-0.040900000371038914 61.53559875488281 -0.07300000172108412 -159.8740017414093 -66.60379886627197 161.30000352859497 0.9819009806960821 11.321200579404831 13.688499480485916 0.14364900416694582 -13.562199622392654 3.8502798601984978 -0.06967830006033182 13.313100188970566 9.89436998963356 4.973250031471252 -18.807200342416763 20.066399574279785 0.0 0.0 0.0 0.0 0.0 0.0 0.0 0.0 0.0 50.873098969459534 82.1783995628357 12.442700564861298 -26.441299617290497 -45.36530077457428 94.21420097351074 -46.03429734706879 -80.0985985994339 -53.62470209598541 1.1817746781161986e-09 6.420464160328265e-10 -2.7625901566352695e-10 2.0386892174428795e-09 1.248281478183344e-09 -3.888089850079268e-10 1.1817746781161986e-09 6.420464160328265e-10 -2.7625901566352695e-10 7.7309102565050125 5.474880114197731 0.41731400415301323 1.1817746781161986e-09 6.420464160328265e-10 -2.7625901566352695e-10 2.905540131032467 0.9651830233633518 0.102901995414868 1.1817746781161986e-09 6.420464160328265e-10 -2.7625901566352695e-10 10.27859978377819 0.7318009994924068 0.025912300043273717 1.1817746781161986e-09 6.420464160328265e-10 -2.7625901566352695e-10 2.221670038998127 -0.733487019315362 -0.2089200052432716 0.0 0.0 0.0 -67.51370072364807 6.4596498012542725 -36.4450004696846 28.429800868034363 -35.19159883260727 -75.65990209579468 0.45466598588973284 18.811300098896027 -2.744089923799038 3.325340003357269e-11 1.892885848064907e-10 5.627498467219993e-10 6.139089236967266e-11 3.248601387895178e-10 9.822542779147625e-10 3.325340003357269e-11 1.892885848064907e-10 5.627498467219993e-10 -7.7309102565050125 5.474880114197731 -0.41731400415301323 3.325340003357269e-11 1.892885848064907e-10 5.627498467219993e-10 -2.905540131032467 0.9651830233633518 -0.102901995414868 3.325340003357269e-11 1.892885848064907e-10 5.627498467219993e-10 -10.27859978377819 0.7318009994924068 -0.025912300043273717 3.325340003357269e-11 1.892885848064907e-10 5.627498467219993e-10 -2.221670038998127 -0.733487019315362 0.2089200052432716 0.0 0.0 0.0 -13.77849966287613 -37.13559955358505 -25.703099370002747 -20.732700526714325 87.5057977437973 22.394099682569504 -22.77190089225769 -25.37190020084381 -33.466200828552246 0.0 0.0 0.0 80.34979820251465 -42.1273997426033 74.12169814109802 3.73331006616354 76.38530015945435 -3.602529913187027 -0.06385910091921687 3.949880003929138 -5.87380975484848
-0.05040000006556511 61.5015983581543 -0.07300000172108412 -159.95200037956238 -66.57429993152618 161.3599991798401 0.9745409991592169 11.400399506092072 13.71379941701889 0.19507500808686018 -13.6136993765831 3.8637998700141907 -0.11449800222180784 13.330499678850174 9.894669726490974 5.01752994954586 -18.88870060443878 20.08899986743927 0.0 0.0 0.0 0.0 0.0 0.0 0.0 -7.673861546209082e-12 0.0 50.705997347831726 82.12380051612854 12.537099570035934 -26.43060028553009 -45.3887003660202 94.26289916038513 -46.15190148353577 -80.11350095272064 -53.744001388549805 1.7701040633255616e-09 2.45307774093817e-09 7.059952622512355e-10 2.977458279929124e-09 4.3510794967005495e-09 1.2994405551580712e-09 1.7701040633255616e-09 2.45307774093817e-09 7.059952622512355e-10 7.7309102565050125 5.474880114197731 0.41731400415301323 1.7701040633255616e-09 2.45307774093817e-09 7.059952622512355e-10 2.905540131032467 0.9651830233633518 0.102901995414868 1.7701040633255616e-09 2.45307774093817e-09 7.059952622512355e-10 10.27859978377819 0.7318009994924068 0.025912300043273717 1.7701040633255616e-09 2.45307774093817e-09 7.059952622512355e-10 2.221670038998127 -0.733487019315362 -0.2089200052432716 0.0 -7.673861546209082e-12 0.0 -67.59070158004761 6.429849788546562 -36.43919885158539 28.42899888753891 -35.20389944314957 -75.68690121173859 0.45672701206058264 18.852399587631226 -2.750539965927601 -5.832134775118902e-10 1.5296564015443437e-09 3.2946445571724325e-09 -9.72022462519817e-10 2.6346924641984515e-09 5.6991211749846116e-09 -5.832134775118902e-10 1.5296564015443437e-09 3.2946445571724325e-09 -7.7309102565050125 5.474880114197731 -0.41731400415301323 -5.832134775118902e-10 1.5296564015443437e-09 3.2946445571724325e-09 -2.905540131032467 0.9651830233633518 -0.102901995414868 -5.832134775118902e-10 1.5296564015443437e-09 3.2946445571724325e-09 -10.27859978377819 0.7318009994924068 -0.025912300043273717 -5.832134775118902e-10 1.5296564015443437e-09 3.2946445571724325e-09 -2.221670038998127 -0.733487019315362 0.2089200052432716 0.0 0.0 0.0 -13.670000284910202 -37.196700274944305 -25.66370040178299 -21.337499767541885 87.57189810276031 23.005000948905945 -22.865000367164612 -25.310799479484558 -33.61749887466431 0.0 0.0 0.0 80.45060098171234 -42.20290124416351 74.0666002035141 3.7576501071453094 76.45859956741333 -3.6276699230074883 -0.061032597441226244 3.9687298983335495 -5.850579813122749
